<svg data-v-d3f97b9e="" xmlns="http://www.w3.org/2000/svg" viewBox="0 0 977 90"><!----><!----><!----><g data-v-d3f97b9e="" id="ca7b3588-6cf0-466e-a2b3-c08b99e4e115" fill="#012B3D" transform="matrix(6.109979823280842,0,0,6.109979823280842,159.26495215327208,13.22810482607294)"><path d="M8.48 9.63C7.43 6.45 5.46 2.03 4.58 1.09C4.48 1.01 4.30 1.01 4.20 1.09C3.32 2.03 1.34 6.45 0.29 9.63C0.10 10.21 1.99 10.21 2.16 9.63C2.37 8.93 2.58 8.27 2.79 7.62L5.99 7.62C6.20 8.27 6.41 8.93 6.62 9.63C6.79 10.19 8.69 10.21 8.48 9.63ZM3.26 6.23C3.58 5.33 3.95 4.44 4.40 3.50C4.83 4.44 5.19 5.33 5.52 6.23ZM12.50 8.48C12.24 8.57 12.01 8.62 11.84 8.62C11.47 8.62 11.31 8.36 11.31 7.76L11.31 0.71C11.31 0.04 9.67 0.74 9.67 1.41L9.67 8.15C9.67 9.56 10.36 10.05 11.23 10.05C11.63 10.05 12.07 9.94 12.50 9.79C13.10 9.52 13.09 8.26 12.50 8.48ZM20.03 6.23C20.03 4.38 19.01 3.37 16.97 3.37C14.84 3.37 13.73 4.66 13.73 6.66C13.73 9.04 15.46 10.04 17.18 10.04C17.96 10.04 18.70 9.83 19.35 9.42C19.74 9.17 19.74 8.02 19.22 8.25C18.51 8.57 17.89 8.75 17.30 8.75C16.32 8.75 15.41 8.27 15.39 7.28C15.76 7.34 16.18 7.36 16.56 7.36C18.33 7.36 20.03 6.89 20.03 6.23ZM15.41 6.10C15.43 5.03 16.14 4.62 17.04 4.62C18.02 4.62 18.54 5.08 18.54 5.77C18.54 5.98 17.63 6.16 16.46 6.16C16.13 6.16 15.78 6.15 15.41 6.10ZM27.51 9.58C26.75 8.48 25.96 7.42 25.06 6.37C25.79 5.53 26.57 4.70 27.45 3.84C28.04 3.26 26.17 3.21 25.54 3.84C25.03 4.34 24.57 4.82 24.14 5.31C23.69 4.82 23.23 4.34 22.74 3.84C22.09 3.21 20.22 3.26 20.80 3.84C21.69 4.70 22.47 5.53 23.20 6.37C22.30 7.43 21.52 8.48 20.75 9.58C20.34 10.18 22.12 10.21 22.55 9.58C23.06 8.86 23.58 8.16 24.14 7.48C24.68 8.16 25.20 8.86 25.70 9.58C26.14 10.21 27.92 10.18 27.51 9.58ZM35.11 8.48C35 8.53 34.90 8.54 34.80 8.54C34.54 8.54 34.40 8.33 34.40 7.76L34.40 6.03C34.40 4.05 33.31 3.37 31.60 3.37C30.18 3.37 29.36 3.65 28.77 4.14C28.31 4.51 28.41 5.56 28.88 5.26C29.46 4.93 30.23 4.69 31.09 4.69C32.27 4.69 32.76 5.08 32.76 6.24L32.76 6.31C32.33 6.09 31.68 5.95 30.79 5.95C29.29 5.95 28.32 6.76 28.32 8.01C28.32 9.25 29.23 10.05 30.63 10.05C31.71 10.05 32.47 9.66 32.93 9.24C33.15 9.81 33.57 10.02 34.06 10.02C34.40 10.02 34.76 9.93 35.11 9.79C35.71 9.53 35.71 8.26 35.11 8.48ZM31.08 8.75C30.27 8.75 29.97 8.37 29.97 7.97C29.97 7.55 30.30 7.15 31.16 7.15C31.98 7.15 32.51 7.29 32.76 7.48L32.76 8.04C32.51 8.34 31.95 8.75 31.08 8.75ZM43.62 8.57C43.50 8.62 43.40 8.64 43.30 8.64C43.02 8.64 42.88 8.44 42.88 8.04L42.88 7.52L42.88 5.73C42.88 4.26 42.03 3.37 40.63 3.37C39.69 3.37 38.82 3.71 38.14 4.38L37.91 3.67C37.77 3.29 36.54 3.25 36.54 3.78L36.54 9.63C36.54 10.19 38.18 10.19 38.18 9.63L38.18 5.77C38.78 5.08 39.38 4.82 39.94 4.82C40.78 4.82 41.24 5.26 41.24 6.30L41.24 7.20L41.24 8.29C41.24 9.65 41.80 10.11 42.53 10.11C42.88 10.11 43.25 10.01 43.62 9.87C44.21 9.62 44.18 8.29 43.62 8.57ZM51.87 8.48C51.74 8.53 51.63 8.55 51.55 8.55C51.27 8.55 51.14 8.36 51.14 7.97L51.14 7.18L51.14 0.62C51.14-0.04 49.50 0.66 49.50 1.32L49.50 4.12C48.93 3.64 48.15 3.37 47.28 3.37C45.79 3.37 44.79 4.70 44.79 6.69C44.79 8.72 45.79 10.04 47.28 10.04C48.23 10.04 49.06 9.70 49.63 9.14C49.83 9.79 50.27 10.02 50.81 10.02C51.14 10.02 51.51 9.93 51.87 9.79C52.47 9.52 52.44 8.22 51.87 8.48ZM47.99 8.61C46.97 8.62 46.45 7.97 46.45 6.69C46.45 5.46 46.97 4.80 47.99 4.82C48.54 4.82 49.06 5.04 49.50 5.46L49.50 7.91C49.07 8.36 48.54 8.61 47.99 8.61ZM59.30 6.23C59.30 4.38 58.28 3.37 56.24 3.37C54.11 3.37 53.00 4.66 53.00 6.66C53.00 9.04 54.73 10.04 56.45 10.04C57.23 10.04 57.97 9.83 58.62 9.42C59.01 9.17 59.01 8.02 58.49 8.25C57.78 8.57 57.16 8.75 56.57 8.75C55.59 8.75 54.68 8.27 54.66 7.28C55.03 7.34 55.45 7.36 55.83 7.36C57.60 7.36 59.30 6.89 59.30 6.23ZM54.68 6.10C54.70 5.03 55.41 4.62 56.31 4.62C57.29 4.62 57.81 5.08 57.81 5.77C57.81 5.98 56.90 6.16 55.73 6.16C55.40 6.16 55.05 6.15 54.68 6.10ZM64.34 3.43C63.25 3.46 62.44 3.88 61.91 4.54L61.70 3.68C61.60 3.29 60.27 3.28 60.27 3.81L60.27 9.63C60.27 10.19 61.92 10.19 61.92 9.63L61.92 5.94C62.57 5.25 63.22 5.04 64.04 5.00C64.53 4.98 64.86 3.42 64.34 3.43ZM75.17 5.08L73.14 5.08C72.56 5.08 71.85 6.51 72.44 6.51L74.28 6.51L74.28 8.54C73.92 8.61 73.51 8.65 73.15 8.65C71.57 8.65 70.28 7.74 70.28 5.56C70.28 3.36 71.51 2.44 73.12 2.44C73.92 2.44 74.93 2.70 75.36 3.00C75.85 3.30 75.84 2.03 75.47 1.68C75.07 1.32 74.03 1.04 72.87 1.04C70.39 1.04 68.64 2.48 68.64 5.56C68.64 8.64 70.43 10.05 72.94 10.05C74.19 10.05 75.24 9.77 75.64 9.42C75.81 9.27 75.91 8.81 75.91 8.50L75.91 5.39C75.91 5.19 75.53 5.08 75.17 5.08ZM78.18 2.31C78.74 2.31 79.13 1.92 79.13 1.29C79.13 0.70 78.74 0.29 78.18 0.29C77.59 0.29 77.21 0.70 77.21 1.29C77.21 1.92 77.59 2.31 78.18 2.31ZM79.32 8.51C79.28 8.53 79.24 8.54 79.20 8.54C79.06 8.54 78.99 8.43 78.99 8.25L78.99 3.56C78.99 2.90 77.34 3.58 77.34 4.26L77.34 8.65C77.34 9.63 77.81 10.04 78.44 10.04C78.72 10.04 79.03 9.97 79.32 9.83C79.91 9.53 79.91 8.26 79.32 8.51ZM84.06 8.48C83.79 8.57 83.57 8.62 83.40 8.62C83.02 8.62 82.87 8.36 82.87 7.76L82.87 0.71C82.87 0.04 81.23 0.74 81.23 1.41L81.23 8.15C81.23 9.56 81.91 10.05 82.78 10.05C83.19 10.05 83.62 9.94 84.06 9.79C84.66 9.52 84.64 8.26 84.06 8.48ZM89.56 3.37C88.70 3.37 87.92 3.64 87.35 4.12L87.35 0.66C87.35 0 85.71 0.60 85.71 1.26L85.71 9.66C85.71 10.19 86.91 10.15 87.07 9.76L87.28 9.20C87.85 9.72 88.66 10.04 89.56 10.04C91.06 10.04 92.05 8.72 92.05 6.69C92.05 4.70 91.06 3.37 89.56 3.37ZM88.84 8.61C88.30 8.61 87.78 8.37 87.35 7.92L87.35 5.46C87.79 5.04 88.30 4.82 88.84 4.82C89.88 4.80 90.41 5.46 90.41 6.69C90.41 7.97 89.88 8.62 88.84 8.61ZM99.39 6.23C99.39 4.38 98.36 3.37 96.32 3.37C94.19 3.37 93.09 4.66 93.09 6.66C93.09 9.04 94.81 10.04 96.53 10.04C97.31 10.04 98.06 9.83 98.70 9.42C99.09 9.17 99.09 8.02 98.57 8.25C97.86 8.57 97.24 8.75 96.66 8.75C95.68 8.75 94.77 8.27 94.74 7.28C95.12 7.34 95.54 7.36 95.91 7.36C97.68 7.36 99.39 6.89 99.39 6.23ZM94.77 6.10C94.78 5.03 95.49 4.62 96.39 4.62C97.37 4.62 97.89 5.08 97.89 5.77C97.89 5.98 96.98 6.16 95.82 6.16C95.48 6.16 95.13 6.15 94.77 6.10ZM104.43 3.43C103.33 3.46 102.52 3.88 101.99 4.54L101.78 3.68C101.68 3.29 100.35 3.28 100.35 3.81L100.35 9.63C100.35 10.19 102.00 10.19 102.00 9.63L102.00 5.94C102.65 5.25 103.31 5.04 104.12 5.00C104.61 4.98 104.94 3.42 104.43 3.43ZM110.25 8.26C108.93 9.02 108.15 8.76 108.15 7.45L108.15 5.12L110.35 5.12C110.91 5.12 110.91 3.68 110.35 3.68L108.15 3.68L108.15 2.03C108.15 1.50 106.85 1.50 106.78 1.90L106.50 3.68L105.64 3.68C105.08 3.68 105.08 5.12 105.64 5.12L106.50 5.12L106.50 7.39C106.50 9.95 108.46 10.58 110.25 9.59C110.73 9.30 110.71 8.01 110.25 8.26ZM113.36 5.29C113.36 4.84 114.03 4.58 114.90 4.58C115.61 4.58 116.45 4.76 117.19 5.15C117.61 5.39 117.57 4.07 117.17 3.88C116.48 3.54 115.63 3.37 114.79 3.37C113.20 3.37 111.72 3.98 111.72 5.33C111.72 6.80 113.26 7 114.48 7.20C115.29 7.32 115.96 7.43 115.96 7.92C115.96 8.46 115.25 8.75 114.34 8.75C113.61 8.75 112.77 8.57 112.04 8.18C111.59 7.97 111.66 9.35 112.06 9.55C112.74 9.87 113.64 10.05 114.51 10.05C116.09 10.05 117.60 9.42 117.60 7.95C117.60 6.34 116.05 6.16 114.81 5.98C114.02 5.87 113.36 5.75 113.36 5.29ZM121.93 10.05C124.01 10.05 125.23 8.82 125.23 6.72C125.23 4.61 124.01 3.36 121.93 3.36C119.84 3.36 118.62 4.61 118.62 6.72C118.62 8.82 119.84 10.05 121.93 10.05ZM121.93 8.82C120.88 8.82 120.26 8.06 120.26 6.72C120.26 5.35 120.88 4.59 121.93 4.59C122.98 4.59 123.59 5.35 123.59 6.72C123.59 8.06 122.98 8.82 121.93 8.82ZM133.36 8.57C133.24 8.62 133.14 8.64 133.04 8.64C132.76 8.64 132.62 8.44 132.62 8.04L132.62 7.52L132.62 5.73C132.62 4.26 131.77 3.37 130.37 3.37C129.43 3.37 128.56 3.71 127.88 4.38L127.65 3.67C127.51 3.29 126.28 3.25 126.28 3.78L126.28 9.63C126.28 10.19 127.92 10.19 127.92 9.63L127.92 5.77C128.52 5.08 129.12 4.82 129.68 4.82C130.52 4.82 130.98 5.26 130.98 6.30L130.98 7.20L130.98 8.29C130.98 9.65 131.54 10.11 132.27 10.11C132.62 10.11 132.99 10.01 133.36 9.87C133.95 9.62 133.92 8.29 133.36 8.57Z"></path></g><linearGradient data-v-d3f97b9e="" gradientTransform="rotate(25)" id="70cd945b-756a-4919-a4d9-86de4c6003fe" x1="0%" y1="0%" x2="100%" y2="0%"><stop data-v-d3f97b9e="" offset="0%" style="stop-color: rgb(0, 118, 221); stop-opacity: 1;"></stop><stop data-v-d3f97b9e="" offset="100%" style="stop-color: rgb(0, 205, 233); stop-opacity: 1;"></stop></linearGradient><g data-v-d3f97b9e="" id="fbb170c4-b09a-41f1-bb5b-702d3c6f6826" transform="matrix(1.6009280553532688,0,0,1.6009280553532688,-9.069360868194778,-34.15227915046036)" stroke="none" fill="url(#70cd945b-756a-4919-a4d9-86de4c6003fe)"><path d="M89.441 48.811a17.522 17.522 0 0 0-16.954-5.199l-5.755-17.289h9.814c1.994 0 3.617 1.622 3.617 3.617s-1.622 3.617-3.617 3.617a1.52 1.52 0 1 0 0 3.04 6.664 6.664 0 0 0 6.656-6.656 6.664 6.664 0 0 0-6.656-6.656H64.625c-.028 0-.053.007-.081.008a1.523 1.523 0 0 0-.163.016 1.584 1.584 0 0 0-.155.035c-.027.007-.055.009-.082.018-.018.006-.033.016-.051.023a1.555 1.555 0 0 0-.15.067 1.464 1.464 0 0 0-.123.067 1.454 1.454 0 0 0-.12.086c-.039.03-.079.061-.115.094a1.357 1.357 0 0 0-.097.104 1.458 1.458 0 0 0-.094.114c-.029.04-.053.082-.078.125a1.511 1.511 0 0 0-.068.125 1.354 1.354 0 0 0-.053.138c-.016.047-.032.093-.044.142a1.266 1.266 0 0 0-.024.137 1.494 1.494 0 0 0-.017.164c-.001.019-.006.036-.006.055 0 .028.007.055.008.083a1.427 1.427 0 0 0 .051.315c.007.027.009.055.018.082l2.477 7.44H36.991v-5.986l3.82.93a1.52 1.52 0 0 0 .719-2.954l-11.398-2.775a1.52 1.52 0 1 0-.719 2.953l4.565 1.111a1.555 1.555 0 0 0-.026.257v7.675L22.967 60.025a1.533 1.533 0 0 0-.091.893c.009.047.027.091.041.137.015.048.026.098.045.144.02.049.048.093.073.139.022.04.04.082.065.121.026.04.059.074.089.111.032.04.061.081.097.118.036.036.078.066.118.099.036.03.069.062.108.089a1.512 1.512 0 0 0 .854.264h13.461c-.771 7.327-6.987 12.926-14.355 12.925a14.353 14.353 0 0 1-10.742-4.779 14.348 14.348 0 0 1-3.691-10.421 14.357 14.357 0 0 1 4.759-9.98 14.368 14.368 0 0 1 10.421-3.691 1.52 1.52 0 0 0 .159-3.035c-9.633-.508-17.87 6.919-18.374 16.547A17.352 17.352 0 0 0 10.47 72.32a17.37 17.37 0 0 0 12.079 5.76c.313.016.624.024.935.024 4.325 0 8.442-1.577 11.679-4.493a17.353 17.353 0 0 0 5.713-11.472h1.78c.694 3.077 3.448 5.383 6.733 5.383a6.911 6.911 0 0 0 6.903-6.903 6.893 6.893 0 0 0-2.725-5.49L67.81 39.184 75.105 61.1a1.52 1.52 0 0 0 2.884-.96l-4.537-13.631A14.48 14.48 0 0 1 87.2 50.864c5.379 5.874 4.977 15.03-.897 20.409-5.874 5.38-15.03 4.977-20.409-.898a14.347 14.347 0 0 1-3.778-10.39 14.344 14.344 0 0 1 4.676-10.018 1.52 1.52 0 1 0-2.053-2.241 17.37 17.37 0 0 0-5.659 12.126 17.37 17.37 0 0 0 4.573 12.576c3.443 3.76 8.165 5.668 12.902 5.668 4.22 0 8.451-1.514 11.801-4.582 7.109-6.511 7.596-17.592 1.085-24.703zM42.656 59.1h-1.778a17.532 17.532 0 0 0-8.524-13.536l3.215-7.635L44.3 55.96a6.901 6.901 0 0 0-1.644 3.14zM31.161 48.397a14.489 14.489 0 0 1 6.663 10.704h-11.17l4.507-10.704zm18.228 16.086a3.868 3.868 0 0 1-3.864-3.864 3.868 3.868 0 0 1 3.864-3.864 3.868 3.868 0 0 1 3.864 3.864 3.869 3.869 0 0 1-3.864 3.864zm1.26-10.649a6.851 6.851 0 0 0-3.819.377l-8.934-18.448h28.775l.033.098-16.055 17.973z"></path></g><!----></svg>